<svg xmlns="http://www.w3.org/2000/svg" width="135" height="135" viewBox="0 0 135 135">
  <metadata><?xpacket begin="﻿" id="W5M0MpCehiHzreSzNTczkc9d"?>
<x:xmpmeta xmlns:x="adobe:ns:meta/" x:xmptk="Adobe XMP Core 5.6-c138 79.159824, 2016/09/14-01:09:01        ">
   <rdf:RDF xmlns:rdf="http://www.w3.org/1999/02/22-rdf-syntax-ns#">
      <rdf:Description rdf:about=""/>
   </rdf:RDF>
</x:xmpmeta>
                                                                                                    
                                                                                                    
                                                                                                    
                                                                                                    
                                                                                                    
                                                                                                    
                                                                                                    
                                                                                                    
                                                                                                    
                                                                                                    
                                                                                                    
                                                                                                    
                                                                                                    
                                                                                                    
                                                                                                    
                                                                                                    
                                                                                                    
                                                                                                    
                                                                                                    
                                                                                                    
                           
<?xpacket end="w"?></metadata>
<defs>
    <style>
      .cls-1 {
        fill: #e5d0b9;
        opacity: 0.5;
      }

      .cls-2 {
        fill: #fff;
        stroke: #f64d01;
        stroke-linejoin: round;
        stroke-width: 7px;
      }

      .cls-3 {
        fill: #f64d01;
        fill-rule: evenodd;
      }
    </style>
  </defs>
  <circle id="Ellipse_5_copy_2" data-name="Ellipse 5 copy 2" class="cls-1" cx="67.5" cy="67.5" r="67.5"/>
  <circle id="Ellipse_5_copy_5" data-name="Ellipse 5 copy 5" class="cls-2" cx="67.205" cy="67.205" r="58.985"/>
  <path id="Forma_1" data-name="Forma 1" class="cls-3" d="M1375.7,4077.4a19.359,19.359,0,0,0-3.4.3,19.306,19.306,0,1,0-19,15.9h0a19.324,19.324,0,0,0,18.37-13.34,16.919,16.919,0,1,1,5.22,33.31v-24.62a1.19,1.19,0,0,0-2.38,0v24.62a16.93,16.93,0,0,1-15.73-16.87,1.19,1.19,0,0,0-2.38,0A19.3,19.3,0,1,0,1375.7,4077.4Zm-10.44,8.86a16.913,16.913,0,0,1-24.73-23.05l20.28,20.28a1.181,1.181,0,0,0,.84.35,1.2,1.2,0,0,0,.84-2.04l-20.28-20.28A16.917,16.917,0,0,1,1365.26,4086.26Zm11.28-2.91a1.164,1.164,0,0,0-.84-0.35,1.2,1.2,0,0,0-1.19,1.19,1.164,1.164,0,0,0,.35.84,1.188,1.188,0,0,0,.84.35,1.2,1.2,0,0,0,1.19-1.19A1.188,1.188,0,0,0,1376.54,4083.35Zm-26.57-22.23a1.188,1.188,0,0,0-1.5-.76c-0.01,0-.03.01-0.04,0.01a1.2,1.2,0,0,0-.72,1.53,1.185,1.185,0,0,0,1.12.78,1.32,1.32,0,0,0,.39-0.06A1.194,1.194,0,0,0,1349.97,4061.12Zm13.76,2.75a14.813,14.813,0,0,0-11.06-4.31,1.191,1.191,0,1,0,.11,2.38,12.441,12.441,0,0,1,9.27,3.61,1.141,1.141,0,0,0,.84.35,1.157,1.157,0,0,0,.84-0.35A1.177,1.177,0,0,0,1363.73,4063.87Z" transform="translate(-1298 -4017)"/>
</svg>
