<svg xmlns="http://www.w3.org/2000/svg" width="135" height="135" viewBox="0 0 135 135">
  <metadata><?xpacket begin="﻿" id="W5M0MpCehiHzreSzNTczkc9d"?>
<x:xmpmeta xmlns:x="adobe:ns:meta/" x:xmptk="Adobe XMP Core 5.6-c138 79.159824, 2016/09/14-01:09:01        ">
   <rdf:RDF xmlns:rdf="http://www.w3.org/1999/02/22-rdf-syntax-ns#">
      <rdf:Description rdf:about=""/>
   </rdf:RDF>
</x:xmpmeta>
                                                                                                    
                                                                                                    
                                                                                                    
                                                                                                    
                                                                                                    
                                                                                                    
                                                                                                    
                                                                                                    
                                                                                                    
                                                                                                    
                                                                                                    
                                                                                                    
                                                                                                    
                                                                                                    
                                                                                                    
                                                                                                    
                                                                                                    
                                                                                                    
                                                                                                    
                                                                                                    
                           
<?xpacket end="w"?></metadata>
<defs>
    <style>
      .cls-1 {
        fill: #e5d0b9;
        opacity: 0.5;
      }

      .cls-2 {
        fill: #fff;
        stroke: #f64d01;
        stroke-linejoin: round;
        stroke-width: 7px;
      }

      .cls-3 {
        fill: #fa590e;
        fill-rule: evenodd;
      }
    </style>
  </defs>
  <circle id="Ellipse_5_copy_2" data-name="Ellipse 5 copy 2" class="cls-1" cx="67.5" cy="67.5" r="67.5"/>
  <circle id="Ellipse_5_copy_5" data-name="Ellipse 5 copy 5" class="cls-2" cx="67.205" cy="67.205" r="58.985"/>
  <path id="Forma_1" data-name="Forma 1" class="cls-3" d="M1388.84,4203.03h-40.02a1.193,1.193,0,0,0-1.19,1.19v23.92a1.19,1.19,0,1,0,2.38,0v-3.62a23.352,23.352,0,0,1,18.36.33,26.987,26.987,0,0,0,10.67,2.23,25.293,25.293,0,0,0,4.2-.35,24.212,24.212,0,0,0,4.4-1.16v32.47a3.581,3.581,0,0,1-3.57,3.58h-30.48a3.589,3.589,0,0,1-3.58-3.58v-18.2a1.19,1.19,0,1,0-2.38,0v18.2a5.962,5.962,0,0,0,5.96,5.96h30.48a5.962,5.962,0,0,0,5.96-5.96v-53.82A1.193,1.193,0,0,0,1388.84,4203.03Zm-1.2,19.97a20.963,20.963,0,0,1-4.89,1.4,23.931,23.931,0,0,1-13.44-1.74,26.565,26.565,0,0,0-14.87-1.89,23.27,23.27,0,0,0-4.42,1.18v-16.54h37.62V4223h0Zm-37.97,10.75a1.23,1.23,0,0,0-.85-0.35,1.19,1.19,0,0,0,0,2.38,1.23,1.23,0,0,0,.85-0.35A1.208,1.208,0,0,0,1349.67,4233.75Zm33.45,1.78a1.193,1.193,0,0,0-1.19,1.19v9.93a1.19,1.19,0,1,0,2.38,0v-9.93A1.193,1.193,0,0,0,1383.12,4235.53Zm0.84,14.8a1.206,1.206,0,0,0-.84-0.35,1.188,1.188,0,0,0-.84.35,1.164,1.164,0,0,0-.35.84,1.2,1.2,0,0,0,2.03.85,1.23,1.23,0,0,0,.35-0.85A1.206,1.206,0,0,0,1383.96,4250.33Zm-42.3-18.23a7.388,7.388,0,1,0,2.16,5.22A7.387,7.387,0,0,0,1341.66,4232.1Zm-5.22,10.22a5,5,0,0,1-4.28-7.59l6.87,6.87A4.952,4.952,0,0,1,1336.44,4242.32Zm4.28-2.41-6.87-6.87A5,5,0,0,1,1340.72,4239.91Zm-1.49,9.32a7.385,7.385,0,1,0,7.39,7.39A7.39,7.39,0,0,0,1339.23,4249.23Zm-1.19,12.24a5,5,0,0,1,0-9.71v9.71Zm2.39,0v-9.71A5,5,0,0,1,1340.43,4261.47Z" transform="translate(-1298 -4167)"/>
</svg>
