<svg xmlns="http://www.w3.org/2000/svg" width="135" height="135" viewBox="0 0 135 135">
  <metadata><?xpacket begin="﻿" id="W5M0MpCehiHzreSzNTczkc9d"?>
<x:xmpmeta xmlns:x="adobe:ns:meta/" x:xmptk="Adobe XMP Core 5.6-c138 79.159824, 2016/09/14-01:09:01        ">
   <rdf:RDF xmlns:rdf="http://www.w3.org/1999/02/22-rdf-syntax-ns#">
      <rdf:Description rdf:about=""/>
   </rdf:RDF>
</x:xmpmeta>
                                                                                                    
                                                                                                    
                                                                                                    
                                                                                                    
                                                                                                    
                                                                                                    
                                                                                                    
                                                                                                    
                                                                                                    
                                                                                                    
                                                                                                    
                                                                                                    
                                                                                                    
                                                                                                    
                                                                                                    
                                                                                                    
                                                                                                    
                                                                                                    
                                                                                                    
                                                                                                    
                           
<?xpacket end="w"?></metadata>
<defs>
    <style>
      .cls-1 {
        fill: #e5d0b9;
        opacity: 0.5;
      }

      .cls-2 {
        fill: #fff;
        stroke: #f64d01;
        stroke-linejoin: round;
        stroke-width: 7px;
      }

      .cls-3 {
        fill: #fa4f01;
        fill-rule: evenodd;
      }
    </style>
  </defs>
  <circle id="Ellipse_5_copy_2" data-name="Ellipse 5 copy 2" class="cls-1" cx="67.5" cy="67.5" r="67.5"/>
  <circle id="Ellipse_5_copy_5" data-name="Ellipse 5 copy 5" class="cls-2" cx="67.205" cy="67.205" r="58.985"/>
  <path id="Forma_1" data-name="Forma 1" class="cls-3" d="M1389.14,4362.16h-5.59v-1.65a3.515,3.515,0,0,0-7.03,0v1.65h-19.68v-1.65a3.52,3.52,0,0,0-7.04,0v1.69a1.055,1.055,0,0,0-.31-0.04h-4.67a5.86,5.86,0,0,0-5.86,5.85v19.97a1.175,1.175,0,0,0,2.35,0v-13.76h42.24a1.17,1.17,0,1,0,0-2.34h-42.24v-3.87a3.515,3.515,0,0,1,3.51-3.51h4.67a1.059,1.059,0,0,0,.31-0.05v1.51a3.52,3.52,0,0,0,7.04,0v-1.46h19.68v1.46a3.515,3.515,0,1,0,7.03,0v-1.46h5.59a3.523,3.523,0,0,1,3.52,3.51v44.53a2.11,2.11,0,0,1-4.22,0v-3.03a1.18,1.18,0,0,0-1.18-1.17h-13.63a1.17,1.17,0,0,0,0,2.34h12.46v1.86a4.489,4.489,0,0,0,.53,2.11h-47.17a2.108,2.108,0,0,1-2.11-2.1v-1.87h26.23a1.17,1.17,0,0,0,0-2.34h-11.71a9.61,9.61,0,1,0-12.52,0h-3.17a1.171,1.171,0,0,0-1.17,1.17v3.04a4.46,4.46,0,0,0,4.45,4.45h51.1a4.462,4.462,0,0,0,4.45-4.46v-44.53A5.86,5.86,0,0,0,1389.14,4362.16Zm-34.65,3.8a1.17,1.17,0,1,1-2.34,0v-5.45a1.17,1.17,0,0,1,2.34,0v5.45Zm26.72,0a1.17,1.17,0,1,1-2.34,0v-5.45a1.17,1.17,0,0,1,2.34,0v5.45Zm-42.87,35.1a7.265,7.265,0,1,1,7.26,7.27A7.266,7.266,0,0,1,1338.34,4401.06Zm51.54-28.84a1.183,1.183,0,0,0-1.66,0A1.17,1.17,0,1,0,1389.88,4372.22ZM1370,4408.68a1.183,1.183,0,0,0-1.66,0A1.17,1.17,0,1,0,1370,4408.68Zm-8.49-16.06a4.455,4.455,0,1,0,4.46,4.46A4.462,4.462,0,0,0,1361.51,4392.62Zm0,6.57a2.11,2.11,0,1,1,2.11-2.11A2.117,2.117,0,0,1,1361.51,4399.19Zm10.94-6.57a4.455,4.455,0,1,0,4.45,4.46A4.456,4.456,0,0,0,1372.45,4392.62Zm0,6.57a2.11,2.11,0,1,1,2.11-2.11A2.117,2.117,0,0,1,1372.45,4399.19Zm10.94-6.57a4.455,4.455,0,1,0,4.45,4.46A4.464,4.464,0,0,0,1383.39,4392.62Zm0,6.57a2.11,2.11,0,1,1,2.11-2.11A2.11,2.11,0,0,1,1383.39,4399.19Zm-32.81-18.75a4.45,4.45,0,1,0,4.45,4.45A4.456,4.456,0,0,0,1350.58,4380.44Zm0,6.56a2.11,2.11,0,1,1,2.1-2.11A2.11,2.11,0,0,1,1350.58,4387Zm21.87-6.56a4.45,4.45,0,1,0,4.45,4.45A4.447,4.447,0,0,0,1372.45,4380.44Zm0,6.56a2.11,2.11,0,1,1,2.11-2.11A2.117,2.117,0,0,1,1372.45,4387Zm10.94-6.56a4.45,4.45,0,1,0,4.45,4.45A4.456,4.456,0,0,0,1383.39,4380.44Zm0,6.56a2.11,2.11,0,1,1,2.11-2.11A2.11,2.11,0,0,1,1383.39,4387Zm-21.88-6.56a4.45,4.45,0,1,0,4.46,4.45A4.453,4.453,0,0,0,1361.51,4380.44Zm0,6.56a2.11,2.11,0,1,1,2.11-2.11A2.117,2.117,0,0,1,1361.51,4387Zm-11.73,11.21a1.171,1.171,0,0,0-1.66,0l-3.82,3.81-1.3-1.3a1.174,1.174,0,0,0-1.66,1.66l2.14,2.13a1.15,1.15,0,0,0,.82.34,1.173,1.173,0,0,0,.83-0.34l4.65-4.65A1.159,1.159,0,0,0,1349.78,4398.21Z" transform="translate(-1298 -4322)"/>
</svg>
