<svg xmlns="http://www.w3.org/2000/svg" width="20.75" height="23.812" viewBox="0 0 20.75 23.812">
  <metadata><?xpacket begin="﻿" id="W5M0MpCehiHzreSzNTczkc9d"?>
<x:xmpmeta xmlns:x="adobe:ns:meta/" x:xmptk="Adobe XMP Core 5.6-c138 79.159824, 2016/09/14-01:09:01        ">
   <rdf:RDF xmlns:rdf="http://www.w3.org/1999/02/22-rdf-syntax-ns#">
      <rdf:Description rdf:about=""/>
   </rdf:RDF>
</x:xmpmeta>
                                                                                                    
                                                                                                    
                                                                                                    
                                                                                                    
                                                                                                    
                                                                                                    
                                                                                                    
                                                                                                    
                                                                                                    
                                                                                                    
                                                                                                    
                                                                                                    
                                                                                                    
                                                                                                    
                                                                                                    
                                                                                                    
                                                                                                    
                                                                                                    
                                                                                                    
                                                                                                    
                           
<?xpacket end="w"?></metadata>
<defs>
    <style>
      .cls-1 {
        fill: #e87845;
        fill-rule: evenodd;
      }
    </style>
  </defs>
  <path class="cls-1" d="M1657.95,439.074a2.348,2.348,0,0,0-1.59-.98,2.433,2.433,0,0,0-1.81.562l-1.77,1.377c-0.12-.088-0.25-0.17-0.36-0.248-0.17-.113-0.33-0.217-0.47-0.328a17.2,17.2,0,0,1-3.65-4.241,9.939,9.939,0,0,1-1.09-2.288c0.45-.323.88-0.665,1.3-1,0.15-.12.31-0.25,0.47-0.372a2.3,2.3,0,0,0,.43-3.447l-1.2-1.529c-0.14-.172-0.28-0.35-0.41-0.529-0.26-.348-0.54-0.7-0.83-1.044a2.358,2.358,0,0,0-1.58-.939,2.507,2.507,0,0,0-1.8.525s0,0-.01.009l-1.91,1.5a3.649,3.649,0,0,0-1.37,2.183,8.8,8.8,0,0,0,.18,3.779,21.767,21.767,0,0,0,3.05,6.826,23.628,23.628,0,0,0,7.09,7.077,12.293,12.293,0,0,0,4.24,1.834c0.11,0.015.22,0.035,0.32,0.046a3.808,3.808,0,0,0,3.04-.881,0.055,0.055,0,0,1,.02-0.024,10.731,10.731,0,0,1,.99-0.793c0.24-.178.48-0.365,0.73-0.564a2.5,2.5,0,0,0,.96-1.633,2.369,2.369,0,0,0-.56-1.805Zm1.15,5.469c-0.01,0-.01,0,0,0-0.22.183-.45,0.352-0.69,0.535a12.561,12.561,0,0,0-1.08.876,2.442,2.442,0,0,1-1.98.565c-0.08-.011-0.16-0.02-0.23-0.034a10.884,10.884,0,0,1-3.76-1.645,22.259,22.259,0,0,1-6.68-6.664,20.564,20.564,0,0,1-2.87-6.417,7.135,7.135,0,0,1-.17-3.19,2.277,2.277,0,0,1,.87-1.4l1.92-1.489a1.15,1.15,0,0,1,.8-0.262,1.079,1.079,0,0,1,.69.44,0.165,0.165,0,0,1,.01.019c0.27,0.317.53,0.648,0.79,1,0.14,0.179.28,0.357,0.42,0.543l1.2,1.524a0.96,0.96,0,0,1-.19,1.543c-0.17.131-.32,0.259-0.49,0.38-0.47.375-.92,0.727-1.4,1.063a0.166,0.166,0,0,0-.03.019,1.022,1.022,0,0,0-.4,1.1c0,0.019.01,0.033,0.01,0.046a11.016,11.016,0,0,0,1.29,2.824l0.01,0a18.321,18.321,0,0,0,3.94,4.575,6.228,6.228,0,0,0,.58.409,5.557,5.557,0,0,1,.46.325,0.711,0.711,0,0,0,.06.041,1.023,1.023,0,0,0,1.28-.065l1.92-1.5a1.172,1.172,0,0,1,.8-0.284,1.061,1.061,0,0,1,.68.456s0,0,.01.007l2.42,3.087A1,1,0,0,1,1659.1,444.543Z" transform="translate(-1640.19 -424.063)"/>
</svg>
