<svg xmlns="http://www.w3.org/2000/svg" width="70" height="75" viewBox="0 0 70 75">
  <metadata><?xpacket begin="﻿" id="W5M0MpCehiHzreSzNTczkc9d"?>
<x:xmpmeta xmlns:x="adobe:ns:meta/" x:xmptk="Adobe XMP Core 5.6-c138 79.159824, 2016/09/14-01:09:01        ">
   <rdf:RDF xmlns:rdf="http://www.w3.org/1999/02/22-rdf-syntax-ns#">
      <rdf:Description rdf:about=""/>
   </rdf:RDF>
</x:xmpmeta>
                                                                                                    
                                                                                                    
                                                                                                    
                                                                                                    
                                                                                                    
                                                                                                    
                                                                                                    
                                                                                                    
                                                                                                    
                                                                                                    
                                                                                                    
                                                                                                    
                                                                                                    
                                                                                                    
                                                                                                    
                                                                                                    
                                                                                                    
                                                                                                    
                                                                                                    
                                                                                                    
                           
<?xpacket end="w"?></metadata>
<defs>
    <style>
      .cls-1 {
        fill: #ff6b00;
        fill-rule: evenodd;
      }
    </style>
  </defs>
  <path id="Forma_1" data-name="Forma 1" class="cls-1" d="M1668.41,2036.41a1.225,1.225,0,1,0,1.22,1.23A1.227,1.227,0,0,0,1668.41,2036.41Zm10.97,22.88h-3.65v-3.67a1.22,1.22,0,0,0-2.44,0v3.67h-3.66a1.225,1.225,0,0,0,0,2.45h3.66v3.67a1.22,1.22,0,0,0,2.44,0v-3.67h3.65A1.225,1.225,0,0,0,1679.38,2059.29Zm32.91,1.1a9.723,9.723,0,0,0-13.32-3.58l-4.95,2.87v-10.62a6.248,6.248,0,0,0-1.22-3.68l-6.1-8.15v-3.47a3.685,3.685,0,0,0,2.44-3.46v-5.63a3.67,3.67,0,0,0-3.66-3.67h-21.95a3.668,3.668,0,0,0-3.65,3.67v5.63a3.685,3.685,0,0,0,2.44,3.46v3.47l-6.1,8.15a6.18,6.18,0,0,0-1.22,3.68v23.69a6.107,6.107,0,0,0,6.1,6.11h19.59a9.721,9.721,0,0,0,13.25,3.46l14.78-8.56A9.81,9.81,0,0,0,1712.29,2060.39Zm-49.97-35.72a1.216,1.216,0,0,1,1.21-1.22h21.95a1.225,1.225,0,0,1,1.22,1.22v5.63a1.225,1.225,0,0,1-1.22,1.22h-21.95a1.216,1.216,0,0,1-1.21-1.22v-5.63h0Zm-4.15,22.18,6.34-8.48a1.206,1.206,0,0,0,.24-0.73v-3.67h19.51v2.44h-10.97a1.225,1.225,0,0,0,0,2.45h11.58l5.97,7.99a3.585,3.585,0,0,1,.71,1.8h-34.09A3.777,3.777,0,0,1,1658.17,2046.85Zm2.93,29.57a3.67,3.67,0,0,1-3.66-3.67v-1.24h22.15a9.845,9.845,0,0,0,.06,4.91H1661.1Zm19.45-7.34h-23.11v-17.99h34.14v10l-7.39,4.28A9.677,9.677,0,0,0,1680.55,2069.08Zm12.17,11.12a7.334,7.334,0,0,1-7.32-12.71l6.62-3.83,7.32,12.71Zm14.78-8.56-6.05,3.51-7.32-12.72,6.06-3.5A7.331,7.331,0,0,1,1707.5,2071.64Z" transform="translate(-1649.295 -2014.83)"/>
</svg>
