<svg xmlns="http://www.w3.org/2000/svg" width="19" height="23" viewBox="0 0 19 23">
  <metadata><?xpacket begin="﻿" id="W5M0MpCehiHzreSzNTczkc9d"?>
<x:xmpmeta xmlns:x="adobe:ns:meta/" x:xmptk="Adobe XMP Core 5.6-c138 79.159824, 2016/09/14-01:09:01        ">
   <rdf:RDF xmlns:rdf="http://www.w3.org/1999/02/22-rdf-syntax-ns#">
      <rdf:Description rdf:about=""/>
   </rdf:RDF>
</x:xmpmeta>
                                                                                                    
                                                                                                    
                                                                                                    
                                                                                                    
                                                                                                    
                                                                                                    
                                                                                                    
                                                                                                    
                                                                                                    
                                                                                                    
                                                                                                    
                                                                                                    
                                                                                                    
                                                                                                    
                                                                                                    
                                                                                                    
                                                                                                    
                                                                                                    
                                                                                                    
                                                                                                    
                           
<?xpacket end="w"?></metadata>
<defs>
    <style>
      .cls-1 {
        fill: #e87845;
        fill-rule: evenodd;
      }
    </style>
  </defs>
  <path class="cls-1" d="M1650.42,360.4h0.15a4.236,4.236,0,0,0,3.26-1.455c1.77-2.069,1.48-5.613,1.45-5.95a4.9,4.9,0,0,0-2.24-4.318,5.087,5.087,0,0,0-2.49-.674h-0.08a5.054,5.054,0,0,0-2.49.654,4.9,4.9,0,0,0-2.27,4.338c-0.03.337-.32,3.881,1.46,5.95A4.2,4.2,0,0,0,1650.42,360.4Zm-3.47-7.285v-0.039c0.16-3.412,2.51-3.78,3.52-3.78h0.05c1.25,0.027,3.37.55,3.51,3.78a0.054,0.054,0,0,0,.01.039c0,0.032.33,3.273-1.14,4.975a3,3,0,0,1-2.38,1.023h-0.05a2.984,2.984,0,0,1-2.38-1.023C1646.63,356.39,1646.94,353.136,1646.95,353.11Zm13.04,13.162v-0.136c-0.03-.944-0.09-3.147-2.1-3.853-0.01,0-.03-0.008-0.04-0.014a13.248,13.248,0,0,1-3.84-1.8,0.613,0.613,0,0,0-.87.156,0.652,0.652,0,0,0,.15.893,14.216,14.216,0,0,0,4.22,1.987c1.08,0.4,1.2,1.584,1.23,2.67a0.471,0.471,0,0,0,.01.119,9.9,9.9,0,0,1-.1,1.47,17.969,17.969,0,0,1-16.3,0,8.734,8.734,0,0,1-.1-1.471c0-.036.01-0.074,0.01-0.12,0.03-1.084.15-2.27,1.23-2.666a14.372,14.372,0,0,0,4.22-1.988,0.65,0.65,0,0,0,.15-0.891,0.61,0.61,0,0,0-.87-0.159,13.079,13.079,0,0,1-3.84,1.8l-0.04.013c-2.01.711-2.07,2.914-2.1,3.854v0.136a7.184,7.184,0,0,0,.24,2.155,0.538,0.538,0,0,0,.24.3,19,19,0,0,0,18.04,0,0.638,0.638,0,0,0,.24-0.3A7.7,7.7,0,0,0,1659.99,366.272Z" transform="translate(-1641 -348)"/>
</svg>
