<svg xmlns="http://www.w3.org/2000/svg" width="18.5" height="19.937" viewBox="0 0 18.5 19.937">
  <metadata><?xpacket begin="﻿" id="W5M0MpCehiHzreSzNTczkc9d"?>
<x:xmpmeta xmlns:x="adobe:ns:meta/" x:xmptk="Adobe XMP Core 5.6-c138 79.159824, 2016/09/14-01:09:01        ">
   <rdf:RDF xmlns:rdf="http://www.w3.org/1999/02/22-rdf-syntax-ns#">
      <rdf:Description rdf:about=""/>
   </rdf:RDF>
</x:xmpmeta>
                                                                                                    
                                                                                                    
                                                                                                    
                                                                                                    
                                                                                                    
                                                                                                    
                                                                                                    
                                                                                                    
                                                                                                    
                                                                                                    
                                                                                                    
                                                                                                    
                                                                                                    
                                                                                                    
                                                                                                    
                                                                                                    
                                                                                                    
                                                                                                    
                                                                                                    
                                                                                                    
                           
<?xpacket end="w"?></metadata>
<defs>
    <style>
      .cls-1 {
        fill: #ff6b00;
        fill-rule: evenodd;
      }
    </style>
  </defs>
  <path id="Forma_1" data-name="Forma 1" class="cls-1" d="M1648.75,639.2c-0.01-.538-0.02-1.049-0.02-1.538a0.741,0.741,0,0,0-.78-0.695,11.3,11.3,0,0,1-7.91-2.7,0.838,0.838,0,0,0-1.08,0,11.3,11.3,0,0,1-7.91,2.7,0.741,0.741,0,0,0-.78.695c0,0.489-.01,1-0.02,1.538-0.1,5.008-.25,11.869,9,14.764a0.863,0.863,0,0,0,.5,0C1649,651.068,1648.86,644.206,1648.75,639.2Zm-9.25,13.363c-7.93-2.6-7.81-8.3-7.7-13.336,0-.3.01-0.6,0.01-0.881a12.558,12.558,0,0,1,15.38,0c0,0.285.01,0.578,0.01,0.881C1647.31,644.261,1647.43,649.959,1639.5,652.562Zm2.66-10.955-3.73,3.37-1.59-1.436a0.825,0.825,0,0,0-1.09,0,0.654,0.654,0,0,0,0,.987l2.14,1.929a0.787,0.787,0,0,0,.54.2,0.812,0.812,0,0,0,.55-0.2l4.27-3.862a0.655,0.655,0,0,0,0-.988A0.835,0.835,0,0,0,1642.16,641.607Z" transform="translate(-1630.25 -634.063)"/>
</svg>
