<svg xmlns="http://www.w3.org/2000/svg" width="70" height="75" viewBox="0 0 70 75">
  <metadata><?xpacket begin="﻿" id="W5M0MpCehiHzreSzNTczkc9d"?>
<x:xmpmeta xmlns:x="adobe:ns:meta/" x:xmptk="Adobe XMP Core 5.6-c138 79.159824, 2016/09/14-01:09:01        ">
   <rdf:RDF xmlns:rdf="http://www.w3.org/1999/02/22-rdf-syntax-ns#">
      <rdf:Description rdf:about=""/>
   </rdf:RDF>
</x:xmpmeta>
                                                                                                    
                                                                                                    
                                                                                                    
                                                                                                    
                                                                                                    
                                                                                                    
                                                                                                    
                                                                                                    
                                                                                                    
                                                                                                    
                                                                                                    
                                                                                                    
                                                                                                    
                                                                                                    
                                                                                                    
                                                                                                    
                                                                                                    
                                                                                                    
                                                                                                    
                                                                                                    
                           
<?xpacket end="w"?></metadata>
<defs>
    <style>
      .cls-1 {
        fill: #ff6b00;
        fill-rule: evenodd;
      }
    </style>
  </defs>
  <path id="Forma_1" data-name="Forma 1" class="cls-1" d="M875.494,2016.61a1.3,1.3,0,0,1,2.574-.36l2.058,14.42a1.287,1.287,0,0,1-1.1,1.45,1.176,1.176,0,0,1-.184.02,1.3,1.3,0,0,1-1.285-1.11Zm34.265,4.93-1.018,1.01a1.279,1.279,0,0,0,0,1.82,1.315,1.315,0,0,0,1.839,0l1.017-1.01,1.018,1.01a1.3,1.3,0,0,0,1.838,0,1.277,1.277,0,0,0,0-1.82l-1.017-1.01,1.018-1.01a1.279,1.279,0,0,0,0-1.82,1.315,1.315,0,0,0-1.839,0l-1.018,1.01-1.018-1.01a1.314,1.314,0,0,0-1.838,0,1.277,1.277,0,0,0,0,1.82Zm-37.717,16.73a1.321,1.321,0,0,0,1.822.24,1.286,1.286,0,0,0,.242-1.81l-11.475-14.84a1.3,1.3,0,0,0-1.823-.23,1.275,1.275,0,0,0-.241,1.8Zm-21.335-12.03,0.43,0.33a1.3,1.3,0,0,0,1.823-.24,1.273,1.273,0,0,0-.239-1.8l-0.43-.33a1.307,1.307,0,0,0-1.823.24A1.274,1.274,0,0,0,850.707,2026.24Zm-1.1,15.96a1.286,1.286,0,1,0-.341,2.55l13.293,1.75a1,1,0,0,0,.172.01,1.29,1.29,0,0,0,.169-2.57Zm5.335-12.73,12.635,9.62a1.322,1.322,0,0,0,1.823-.24,1.273,1.273,0,0,0-.238-1.8l-12.636-9.62a1.3,1.3,0,0,0-1.822.23A1.284,1.284,0,0,0,854.944,2029.47Zm27.956,2.79c0.059,0,.118.01,0.176,0.01a1.3,1.3,0,0,0,1.287-1.12l1.991-14.54a1.3,1.3,0,0,0-2.576-.34l-1.991,14.54A1.3,1.3,0,0,0,882.9,2032.26Zm29.632,18.19-17.828-2.33a1.286,1.286,0,1,0-.341,2.55l17.828,2.34c0.058,0,.115.01,0.172,0.01A1.29,1.29,0,0,0,912.532,2050.45Zm1.124-7.09a1.3,1.3,0,0,0-1.457-1.11l-13.376,1.73a1.29,1.29,0,0,0,.167,2.57,1,1,0,0,0,.17-0.02l13.376-1.73A1.287,1.287,0,0,0,913.656,2043.36Zm-8.354-15.9-12.585,9.55a1.285,1.285,0,0,0-.241,1.81,1.321,1.321,0,0,0,1.822.24l12.585-9.55a1.287,1.287,0,0,0,.241-1.81A1.314,1.314,0,0,0,905.3,2027.46Zm-3.477-6.85a1.306,1.306,0,0,0,1.823-.23l0.115-.15a1.274,1.274,0,0,0-.238-1.8,1.3,1.3,0,0,0-1.823.23l-0.115.15A1.273,1.273,0,0,0,901.825,2020.61Zm2.314-2.98a1.3,1.3,0,0,0,.791.27,1.328,1.328,0,0,0,1.031-.5l0.122-.16a1.286,1.286,0,0,0-.238-1.81,1.314,1.314,0,0,0-1.822.24l-0.122.15A1.283,1.283,0,0,0,904.139,2017.63Zm-16.123,20.8a1.3,1.3,0,0,0,.791.27,1.328,1.328,0,0,0,1.031-.5l11.431-14.74a1.273,1.273,0,0,0-.238-1.8,1.3,1.3,0,0,0-1.823.23l-11.431,14.74A1.273,1.273,0,0,0,888.016,2038.43Zm-39.291-15.32a1.284,1.284,0,0,0-.239-1.81l-0.226-.17a1.306,1.306,0,0,0-1.823.24,1.274,1.274,0,0,0,.239,1.8l0.226,0.17A1.306,1.306,0,0,0,848.725,2023.11Zm40.467,34.52a1.285,1.285,0,0,1-.515,1.36,1.31,1.31,0,0,1-1.468.02l-6.089-4.03-6.563,4.05a1.34,1.34,0,0,1-1.467-.06,1.286,1.286,0,0,1-.471-1.38l1.98-6.98-5.911-4.94a1.277,1.277,0,0,1-.392-1.4,1.3,1.3,0,0,1,1.177-.87l7.313-.29,2.91-7.09a1.321,1.321,0,0,1,1.225-.81,1.307,1.307,0,0,1,1.2.85l2.539,6.8,7.71,0.54a1.3,1.3,0,0,1,1.149.91,1.281,1.281,0,0,1-.437,1.39l-5.743,4.49Zm-4.123-8.94,3.771-2.95-5.2-.38a1.287,1.287,0,0,1-1.126-.83l-1.668-4.47-1.964,4.79a1.294,1.294,0,0,1-1.152.8l-4.8.19,3.99,3.33a1.292,1.292,0,0,1,.414,1.34l-1.3,4.58,4.43-2.73a1.3,1.3,0,0,1,1.408.02l4,2.64-1.252-5.01A1.28,1.28,0,0,1,885.069,2048.69Zm21.5,30a1.3,1.3,0,0,0-1.822-.24,1.274,1.274,0,0,0-.241,1.8l0.188,0.25a1.306,1.306,0,0,0,1.823.23,1.274,1.274,0,0,0,.24-1.8Zm-56.945-40.17,1.018-1.01,1.017,1.01a1.328,1.328,0,0,0,1.839,0,1.279,1.279,0,0,0,0-1.82l-1.018-1.01,1.018-1.01a1.279,1.279,0,0,0,0-1.82,1.315,1.315,0,0,0-1.839,0l-1.017,1.01-1.018-1.01a1.315,1.315,0,0,0-1.839,0,1.279,1.279,0,0,0,0,1.82l1.018,1.01-1.017,1.01a1.277,1.277,0,0,0,0,1.82A1.314,1.314,0,0,0,849.629,2038.52Zm54.445,36.93-0.188-.24a1.305,1.305,0,0,0-1.822-.24,1.284,1.284,0,0,0-.241,1.81l0.188,0.24a1.3,1.3,0,0,0,1.032.5,1.358,1.358,0,0,0,.79-0.26A1.285,1.285,0,0,0,904.074,2075.45Zm10.4-14.9,1.018-1a1.277,1.277,0,0,0,0-1.82,1.3,1.3,0,0,0-1.838,0l-1.018,1-1.018-1.01a1.314,1.314,0,0,0-1.838,0,1.289,1.289,0,0,0,0,1.83l1.018,1-1.018,1.01a1.277,1.277,0,0,0,0,1.82,1.3,1.3,0,0,0,1.838,0l1.018-1.01,1.018,1.01a1.293,1.293,0,1,0,1.838-1.82Zm-7.619,5.19-12.112-9.22a1.307,1.307,0,0,0-1.823.24,1.274,1.274,0,0,0,.238,1.8l12.113,9.22a1.306,1.306,0,0,0,1.823-.23A1.283,1.283,0,0,0,906.855,2065.74Zm-12.085-2.32a1.314,1.314,0,0,0-1.822-.24,1.285,1.285,0,0,0-.242,1.81l6.463,8.35a1.3,1.3,0,0,0,1.822.24,1.274,1.274,0,0,0,.242-1.8Zm-25.843-6.73a1.314,1.314,0,0,0-1.822-.24l-12.188,9.25a1.284,1.284,0,0,0-.241,1.81,1.321,1.321,0,0,0,1.822.24l12.188-9.25A1.285,1.285,0,0,0,868.927,2056.69Zm-13.212,17.06a1.3,1.3,0,0,0-1.839,0l-1.018,1.01-1.017-1.01a1.3,1.3,0,0,0-1.839,0,1.277,1.277,0,0,0,0,1.82l1.018,1.01L850,2077.59a1.277,1.277,0,0,0,0,1.82,1.314,1.314,0,0,0,1.838,0l1.018-1.01,1.018,1.01a1.3,1.3,0,1,0,1.838-1.83l-1.017-1,1.017-1.01A1.278,1.278,0,0,0,855.715,2073.75Zm12.716-24.53a1.3,1.3,0,0,0-1.457-1.11l-17.711,2.3a1.285,1.285,0,0,0,.167,2.56,0.982,0.982,0,0,0,.171-0.01l17.71-2.3A1.282,1.282,0,0,0,868.431,2049.22Zm15.932,15.1a1.3,1.3,0,0,0-1.463-1.1,1.285,1.285,0,0,0-1.113,1.45l1.991,14.54a1.3,1.3,0,0,0,1.286,1.11,1.045,1.045,0,0,0,.176-0.01,1.285,1.285,0,0,0,1.114-1.45Zm-5.341-.97a1.3,1.3,0,0,0-1.47,1.1l-2.058,14.41a1.292,1.292,0,0,0,1.105,1.46,1.142,1.142,0,0,0,.184.01,1.292,1.292,0,0,0,1.285-1.11l2.058-14.41A1.291,1.291,0,0,0,879.022,2063.35Zm-10.194-.19a1.314,1.314,0,0,0-1.822.24l-6.475,8.35a1.273,1.273,0,0,0,.238,1.8,1.306,1.306,0,0,0,1.823-.23l6.475-8.35A1.286,1.286,0,0,0,868.828,2063.16Z" transform="translate(-846.015 -2010.58)"/>
</svg>
