<svg xmlns="http://www.w3.org/2000/svg" width="27" height="15" viewBox="0 0 27 15">
  <metadata><?xpacket begin="﻿" id="W5M0MpCehiHzreSzNTczkc9d"?>
<x:xmpmeta xmlns:x="adobe:ns:meta/" x:xmptk="Adobe XMP Core 5.6-c138 79.159824, 2016/09/14-01:09:01        ">
   <rdf:RDF xmlns:rdf="http://www.w3.org/1999/02/22-rdf-syntax-ns#">
      <rdf:Description rdf:about=""/>
   </rdf:RDF>
</x:xmpmeta>
                                                                                                    
                                                                                                    
                                                                                                    
                                                                                                    
                                                                                                    
                                                                                                    
                                                                                                    
                                                                                                    
                                                                                                    
                                                                                                    
                                                                                                    
                                                                                                    
                                                                                                    
                                                                                                    
                                                                                                    
                                                                                                    
                                                                                                    
                                                                                                    
                                                                                                    
                                                                                                    
                           
<?xpacket end="w"?></metadata>
<defs>
    <style>
      .cls-1 {
        fill: #fd7532;
        fill-rule: evenodd;
      }
    </style>
  </defs>
  <path class="cls-1" d="M1697.81,125.445a3.887,3.887,0,0,0-2.92-1.246h-2.78v-1.526a0.671,0.671,0,0,0-.66-0.674h-13.24a0.671,0.671,0,0,0-.66.674v2.345h-2.58a0.673,0.673,0,0,0,0,1.346h3.25a0.671,0.671,0,0,0,.66-0.673v-2.345h11.91V133.9h-6.24a0.317,0.317,0,0,0-.08.006,2.242,2.242,0,0,0-2.07-1.42,2.211,2.211,0,0,0-2.06,1.43,0.765,0.765,0,0,0-.15-0.016h-1.31v-2.35a0.672,0.672,0,0,0-.66-0.675h-3.25a0.674,0.674,0,0,0,0,1.348h2.58v2.345a0.671,0.671,0,0,0,.66.673h2.02a2.217,2.217,0,0,0,4.34,0h7.95a2.217,2.217,0,0,0,4.34,0h1.48a0.671,0.671,0,0,0,.66-0.673v-5.593A5.116,5.116,0,0,0,1697.81,125.445Zm-15.41,10.214a0.915,0.915,0,1,1,.9-0.914A0.905,0.905,0,0,1,1682.4,135.659Zm12.29,0a0.915,0.915,0,1,1,.9-0.914A0.918,0.918,0,0,1,1694.69,135.659Zm2.98-1.761h-0.92a2.253,2.253,0,0,0-2.06-1.414,2.224,2.224,0,0,0-2.06,1.414h-0.51v-8.353h2.78c1.74,0,2.77,1.284,2.77,3.433v4.92Zm-14.29-4.017a0.681,0.681,0,0,0,0,.954,0.673,0.673,0,0,0,.47.2,0.656,0.656,0,0,0,.47-0.2l1.71-1.733,0.01-.006c0.01-.017.02-0.028,0.03-0.045a0.049,0.049,0,0,0,.02-0.028c0.01-.011.01-0.016,0.02-0.028s0.01-.022.02-0.033,0.01-.017.02-0.029,0.01-.022.01-0.033a0.035,0.035,0,0,0,.01-0.028,0.045,0.045,0,0,0,.01-0.034,0.135,0.135,0,0,1,.02-0.028v-0.034c0-.01.01-0.022,0.01-0.033V128.7c0-.012.01-0.017,0.01-0.029v-0.134a0.035,0.035,0,0,0-.01-0.029v-0.038c0-.012-0.01-0.024-0.01-0.034v-0.034a0.135,0.135,0,0,0-.02-0.028,0.046,0.046,0,0,0-.01-0.034c0-.01-0.01-0.017-0.01-0.028s-0.01-.022-0.01-0.033-0.01-.017-0.02-0.028-0.01-.022-0.02-0.034a0.046,0.046,0,0,0-.02-0.028,0.054,0.054,0,0,0-.02-0.029c-0.01-.016-0.02-0.027-0.03-0.044l-0.01,0-1.62-1.65a0.657,0.657,0,0,0-.94,0,0.681,0.681,0,0,0,0,.954l0.49,0.5h-11.3a0.674,0.674,0,0,0,0,1.347h11.29Z" transform="translate(-1672 -122)"/>
</svg>
